<svg width="171.000000" height="195.000000" viewBox="0 0 171 195" fill="none" xmlns="http://www.w3.org/2000/svg" xmlns:xlink="http://www.w3.org/1999/xlink">
	<desc>
			Created with Pixso.
	</desc>
	<defs>
		<clipPath id="clip11337_1220">
			<rect id="Frame" width="171.000000" height="195.000000" fill="white" fill-opacity="0"/>
		</clipPath>
	</defs>
	<rect id="Frame" width="171.000000" height="195.000000" fill="#FFFFFF" fill-opacity="0"/>
	<g clip-path="url(#clip11337_1220)">
		<path id="Vector" d="M77.6941 174.636C77.5901 174.506 67.1992 161.64 65.0852 158.876C63.7642 157.149 61.7781 156.198 59.4922 156.198C56.9321 156.198 54.656 157.368 53.9802 157.751L48.4941 160.494C46.7212 160.015 42.9072 158.544 39.2141 154.226C35.9302 150.387 35.9531 145.24 36.1282 143.127L42.021 137.234C45.114 134.517 44.4731 130.718 43.2671 128.803L43.0481 128.492C43.0481 128.492 30.186 112.271 28.3821 109.994C27.3931 108.745 25.9072 108.056 24.198 108.056C21.3491 108.056 18.3191 110.031 17.4421 110.648C6.55713 118.397 5.8562 125.21 5.81104 125.961L5.78711 126.375L5.86108 126.784C12.2732 162.51 31.8872 177.921 41.3142 185.327C42.4622 186.228 43.4541 187.008 44.1682 187.633C50.7312 193.38 57.9302 194 60.7212 194C63.0962 193.999 65.2012 193.595 66.8101 192.829C71.176 190.751 76.2351 184.819 77.6821 183.051C80.1831 179.992 78.9651 176.452 77.8501 174.843L77.6941 174.636ZM63.801 186.509C63.302 186.746 62.2312 187 60.7202 187C59.1602 187 53.688 186.666 48.7761 182.368C47.9221 181.621 46.863 180.789 45.6372 179.825C36.9431 172.995 18.9082 158.824 12.8572 126.141C13.146 125.162 14.686 121.203 21.4771 116.37C22.1292 115.917 22.9851 115.466 23.5962 115.228C26.427 118.8 35.0061 129.62 37.0981 132.258L29.5701 139.785L29.3672 140.84C29.2861 141.262 27.4561 151.249 33.894 158.777C40.1802 166.126 47.144 167.444 48.4771 167.633L49.5591 167.787L57.2031 163.964L57.4211 163.846C57.7021 163.679 58.7561 163.198 59.4922 163.198C59.5281 163.198 59.5571 163.199 59.5801 163.201C61.729 166.001 70.6851 177.098 72.0801 178.825C72.0811 178.829 72.082 178.832 72.084 178.835C69.5222 181.93 65.9111 185.504 63.801 186.509Z" fill="#FFFFFF" fill-opacity="1.000000" fill-rule="nonzero"/>
		<path id="Vector" d="M137.85 65.824C143.362 60.647 145.006 53.8491 142.883 45.041C142.676 44.1851 142.035 43.5 141.194 43.239C140.352 42.9771 139.434 43.179 138.78 43.769L130.559 51.1721C129.121 50.377 126.883 48.7209 126.094 45.842L132.897 39.113C133.844 38.175 133.889 36.6602 133.001 35.667L132.815 35.46C132.622 35.2441 132.393 35.064 132.137 34.927C131.977 34.8411 128.149 32.811 123.313 32.811C118.604 32.811 114.454 34.7319 111.311 38.3669C105.311 45.3049 106.754 53.4089 107.768 56.8381L104.28 60.3259L93.9958 51.0901L98.7129 47.824L78.6709 34.1001L68.0701 44.7031L81.7939 64.7441L85.0601 60.0271L94.2969 70.3091L91.002 73.603C89.502 73.125 87.1189 72.551 84.3389 72.551C78.9099 72.551 74.103 74.7251 70.377 78.9102C70.106 79.239 63.7781 87.0752 67.626 97.5312C67.9099 98.3042 68.5569 98.8872 69.355 99.0908C70.1509 99.2939 71 99.0918 71.6189 98.5498L79.9141 91.291C81.2371 91.8579 83.5359 93.3711 84.573 97.2158L77.189 104.732C76.5549 105.377 76.3188 106.314 76.572 107.182C76.825 108.05 77.5259 108.714 78.407 108.919C78.5168 108.944 81.1309 109.542 84.582 109.542C91.4219 109.542 96.6938 107.271 99.8269 102.975C103.19 98.3618 103.921 93.542 103.821 89.8872L120.038 106.104L120.21 106.262C121.731 107.522 124.528 108.987 127.661 108.987C129.888 108.987 132.286 108.246 134.513 106.163L140.031 100.647L140.133 100.543C145.145 95.1851 142.391 88.8452 140.233 86.241L123.288 69.282C124.315 69.3879 125.436 69.4631 126.61 69.4631C131.498 69.4619 135.279 68.238 137.85 65.824ZM84.551 51.978L81.8169 55.927L74.541 45.302L79.272 40.5701L89.897 47.8459L85.947 50.5801L100.739 63.866L96.645 67.959L97.8359 66.7671L84.551 51.978ZM98.113 85.502C98.2219 85.8149 100.728 93.248 95.7849 100.029C93.0149 103.827 88.0369 104.555 84.385 104.541L89.0879 99.7539C89.6541 99.1782 89.908 98.3628 89.7681 97.5669C87.9771 87.4199 80.0229 86.083 79.6851 86.031C78.9561 85.9211 78.2139 86.135 77.658 86.6201L71.4539 92.0479C70.9319 86.488 73.8669 82.5591 74.2129 82.116C76.9338 79.0859 80.3398 77.55 84.3379 77.55C87.853 77.55 90.5688 78.761 90.5869 78.77C91.54 79.209 92.6628 79.011 93.405 78.269L112.405 59.269C113.13 58.5449 113.339 57.4531 112.932 56.5129C112.897 56.4299 109.438 48.1731 115.09 41.637C117.285 39.0981 120.051 37.811 123.311 37.811C124.541 37.811 125.694 37.9941 126.676 38.2319L121.629 43.2251C121.078 43.769 120.811 44.5371 120.904 45.3049C121.916 53.605 129.873 56.3821 130.211 56.4961C131.066 56.7839 132.012 56.5901 132.684 55.9851L138.733 50.5381C139.106 55.4021 137.713 59.092 134.424 62.1799C132.416 64.0671 129.065 64.4631 126.606 64.4631C122.917 64.4631 119.655 63.5981 119.624 63.5901C118.759 63.354 117.829 63.604 117.194 64.2429L98.6938 82.9102C98.0229 83.5869 97.801 84.6001 98.113 85.502ZM103.615 87.3442C103.615 87.3472 103.615 87.3491 103.615 87.3521C103.615 87.3491 103.615 87.3472 103.615 87.3442ZM103.434 86.2231C103.444 86.2751 103.454 86.3271 103.463 86.3811C103.453 86.3291 103.443 86.2739 103.434 86.2231ZM136.525 97.0791L131.046 102.555C127.798 105.535 124.146 102.987 123.47 102.468L104.827 83.823L119.768 68.748L117.733 70.801L136.44 89.5068C136.9 90.0991 139.537 93.7939 136.525 97.0791ZM121.316 69.0251C121.324 69.0261 121.332 69.0271 121.339 69.0291C121.332 69.0271 121.324 69.0261 121.316 69.0251ZM120.473 68.8821C120.493 68.886 120.518 68.8901 120.539 68.894C120.516 68.8901 120.494 68.886 120.473 68.8821Z" fill="#FFFFFF" fill-opacity="1.000000" fill-rule="nonzero"/>
		<path id="Vector" d="M104.162 6.00195C67.7542 6.00195 38.2402 35.5159 38.2402 71.9241C38.2402 105.441 63.2603 133.096 95.6382 137.278L95.6382 163.502C95.6382 163.502 153.077 142.259 167.607 89.8799C167.685 89.5972 167.746 89.3418 167.818 89.0679C167.931 88.644 168.043 88.2178 168.148 87.791C168.212 87.5278 168.267 87.2769 168.326 87.022C169.463 82.1709 170.084 77.1208 170.084 71.9241C170.084 35.5159 140.57 6.00195 104.162 6.00195ZM161.51 85.4241L161.504 85.4509L161.498 85.478L161.469 85.6079C161.43 85.7778 161.393 85.947 161.35 86.123C161.256 86.499 161.159 86.874 161.049 87.2842L160.945 87.6841C160.92 87.792 160.892 87.8999 160.863 88.0078C155.299 108.064 142.343 125.708 122.357 140.45C114.984 145.888 107.949 149.914 102.638 152.625L102.638 137.277L102.638 131.123L96.5342 130.335C67.2913 126.558 45.2393 101.446 45.2393 71.9229C45.2393 39.4329 71.6711 13.001 104.161 13.001C136.649 13.001 163.083 39.4329 163.083 71.9229C163.084 76.4319 162.555 80.9739 161.51 85.4241Z" fill="#FFFFFF" fill-opacity="1.000000" fill-rule="nonzero"/>
		<path id="Vector" d="M54.583 187.998C51.792 187.998 44.594 187.377 38.0291 181.634C37.3149 181.009 36.323 180.229 35.175 179.328C25.749 171.922 6.13403 156.511 -0.278076 120.785L-0.352051 120.375L-0.328125 119.961C-0.283936 119.209 0.417969 112.397 11.303 104.648C12.1799 104.032 15.21 102.057 18.0588 102.057C19.7668 102.057 21.2529 102.745 22.2429 103.995C24.0469 106.271 36.9089 122.493 36.9089 122.493L37.1279 122.804C38.334 124.719 38.9749 128.518 35.8818 131.235L29.989 137.127C29.814 139.24 29.791 144.388 33.075 148.227C36.7668 152.543 40.582 154.016 42.355 154.495L47.8411 151.751C48.5168 151.369 50.793 150.199 53.353 150.199C55.6389 150.199 57.625 151.149 58.946 152.876C61.0601 155.641 71.45 168.507 71.5549 168.637L71.71 168.844C72.825 170.453 74.043 173.993 71.542 177.052C70.095 178.821 65.0369 184.751 60.6699 186.83C59.063 187.593 56.958 187.997 54.583 187.998ZM6.71997 120.14C12.771 152.823 30.8059 166.994 39.5 173.824C40.7261 174.788 41.7849 175.62 42.6389 176.367C47.551 180.665 53.0229 180.999 54.583 180.999C56.094 180.999 57.165 180.745 57.6641 180.508C59.7739 179.502 63.386 175.929 65.948 172.833C65.947 172.831 65.9448 172.828 65.9438 172.824C64.55 171.097 55.593 160 53.4438 157.2C53.4209 157.198 53.3909 157.197 53.356 157.197C52.6199 157.197 51.5659 157.678 51.2849 157.845L51.0669 157.962L43.4229 161.786L42.3411 161.632C41.0081 161.443 34.0439 160.124 27.7581 152.776C21.3201 145.249 23.1499 135.261 23.231 134.839L23.4338 133.784L30.9619 126.257C28.8699 123.618 20.291 112.799 17.46 109.227C16.8489 109.464 15.9929 109.915 15.3411 110.369C8.54785 115.202 7.00806 119.161 6.71997 120.14Z" fill="#3A3A3A" fill-opacity="1.000000" fill-rule="nonzero"/>
		<path id="Vector" d="M78.4431 103.54C74.991 103.54 72.3779 102.942 72.2681 102.917C71.387 102.712 70.6851 102.048 70.4331 101.18C70.1812 100.312 70.416 99.374 71.05 98.73L78.4341 91.2139C77.397 87.3691 75.0981 85.8572 73.7751 85.2891L65.48 92.5479C64.8601 93.0898 64.012 93.292 63.2161 93.0889C62.418 92.8862 61.772 92.3022 61.4871 91.5303C57.6392 81.073 63.967 73.2371 64.238 72.9082C67.9641 68.7231 72.771 66.5491 78.2 66.5491C80.98 66.5491 83.3621 67.123 84.863 67.6011L101.629 50.8362C100.616 47.406 99.1721 39.302 105.172 32.365C108.315 28.7312 112.465 26.8091 117.174 26.8091C122.011 26.8091 125.838 28.8381 125.999 28.925C126.254 29.062 126.483 29.2422 126.676 29.458L126.862 29.665C127.752 30.6582 127.707 32.1731 126.758 33.1111L119.955 39.8401C120.744 42.719 122.983 44.375 124.42 45.1702L132.642 37.7671C133.296 37.177 134.214 36.9751 135.055 37.2371C135.897 37.498 136.538 38.1821 136.745 39.0391C138.868 47.8481 137.223 54.645 131.712 59.822C129.142 62.2361 125.359 63.46 120.47 63.46C117.681 63.46 115.146 63.053 113.631 62.7461L97.127 79.3992C97.856 82.5801 98.7581 90.019 93.688 96.9731C90.5549 101.269 85.283 103.54 78.4431 103.54ZM78.2471 98.5391C81.8979 98.5542 86.8779 97.8252 89.647 94.0269C94.5911 87.2461 92.085 79.813 91.9761 79.5C91.6631 78.5981 91.885 77.585 92.5581 76.907L111.058 58.24C111.692 57.6011 112.622 57.3511 113.488 57.5872C113.518 57.595 116.781 58.46 120.47 58.46C122.928 58.46 126.281 58.064 128.288 56.177C131.576 53.0891 132.969 49.3992 132.597 44.5352L126.548 49.9822C125.876 50.5862 124.931 50.781 124.075 50.4932C123.737 50.3792 115.78 47.6021 114.768 39.302C114.674 38.5342 114.941 37.7661 115.492 37.2222L120.539 32.229C119.558 31.991 118.404 31.8081 117.174 31.8081C113.915 31.8081 111.15 33.0962 108.953 35.634C103.302 42.1702 106.761 50.427 106.796 50.51C107.201 51.4502 106.992 52.543 106.268 53.2661L87.2681 72.2661C86.5271 73.0081 85.4031 73.2061 84.4509 72.7671C84.4331 72.759 81.7161 71.5471 78.2009 71.5471C74.2031 71.5471 70.7971 73.083 68.0759 76.113C67.729 76.5552 64.7939 80.4851 65.3171 86.0452L71.521 80.6172C72.0771 80.1311 72.8191 79.917 73.5481 80.0281C73.885 80.0801 81.8391 81.417 83.6301 91.564C83.771 92.3599 83.5181 93.1743 82.9509 93.751L78.2471 98.5391Z" fill="#F0C42E" fill-opacity="1.000000" fill-rule="nonzero"/>
		<path id="Vector" d="M78.9209 54.0251L88.158 64.3071L91.698 60.7661L78.4128 45.9761L75.678 49.925L68.4019 39.301L73.1338 34.5691L83.7588 41.8452L79.8088 44.5791L94.5999 57.8652L98.1409 54.3242L87.8579 45.0881L92.575 41.8223L72.533 28.0981L61.9319 38.7012L75.6558 58.7422L78.9209 54.0251Z" fill="#3A3A3A" fill-opacity="1.000000" fill-rule="nonzero"/>
		<path id="Vector" d="M117.147 63.28C115.734 63.134 114.507 62.9241 113.63 62.7461L111.596 64.7991L130.302 83.5051C130.762 84.0972 133.399 87.792 130.386 91.0771L124.908 96.5532C121.66 99.5332 118.007 96.9849 117.332 96.4663L98.6899 77.821L97.127 79.3992C97.3721 80.469 97.6318 82.0291 97.6819 83.884L113.899 100.102L114.072 100.26C115.593 101.52 118.39 102.985 121.522 102.985C123.75 102.985 126.147 102.244 128.375 100.161L133.893 94.645L133.995 94.542C139.007 89.1841 136.252 82.843 134.094 80.239L117.147 63.28Z" fill="#3A3A3A" fill-opacity="1.000000" fill-rule="nonzero"/>
		<path id="Vector" d="M98.0229 7C130.512 7 156.945 33.4319 156.945 65.9219C156.945 70.4299 156.416 74.9719 155.372 79.4219L155.366 79.449L155.359 79.4761L155.33 79.606C155.292 79.7759 155.254 79.9451 155.212 80.1211C155.118 80.4971 155.021 80.8721 154.91 81.282L154.807 81.6819C154.781 81.79 154.753 81.8979 154.724 82.0061C149.16 102.062 136.204 119.706 116.218 134.448C108.845 139.886 101.81 143.912 96.499 146.623L96.499 131.275L96.499 125.121L90.395 124.333C61.1521 120.556 39.1011 95.4438 39.1011 65.9209C39.1021 33.4319 65.5342 7 98.0229 7ZM98.0229 0C61.616 0 32.1021 29.5139 32.1021 65.9219C32.1021 99.439 57.1221 127.094 89.5 131.276L89.5 157.5C89.5 157.5 146.939 136.257 161.47 83.8779C161.548 83.595 161.608 83.3401 161.68 83.0659C161.794 82.6421 161.905 82.2161 162.011 81.7891C162.074 81.5259 162.13 81.2749 162.188 81.02C163.326 76.1689 163.946 71.1189 163.946 65.9219C163.945 29.5139 134.432 0 98.0229 0Z" fill="#3A3A3A" fill-opacity="1.000000" fill-rule="nonzero"/>
	</g>
</svg>
