<svg width="156.000000" height="188.000000" viewBox="0 0 156 188" fill="none" xmlns="http://www.w3.org/2000/svg" xmlns:xlink="http://www.w3.org/1999/xlink">
	<desc>
			Created with Pixso.
	</desc>
	<defs>
		<clipPath id="clip11337_1269">
			<rect id="Frame" width="156.000000" height="188.000000" fill="white" fill-opacity="0"/>
		</clipPath>
	</defs>
	<rect id="Frame" width="156.000000" height="188.000000" fill="#FFFFFF" fill-opacity="0"/>
	<g clip-path="url(#clip11337_1269)">
		<path id="Vector" d="M156 68.877C156 77.0229 149.396 83.627 141.25 83.627C133.104 83.627 126.5 77.0229 126.5 68.877C126.5 60.731 133.104 54.127 141.25 54.127C149.396 54.127 156 60.731 156 68.877Z" fill="#FFFFFF" fill-opacity="1.000000" fill-rule="evenodd"/>
		<path id="Vector" d="M89.113 139.544L82.0391 157.419L59.2151 172.336C57.0471 173.568 55.5811 175.895 55.5811 178.566C55.5811 182.524 58.7891 185.733 62.748 185.733C64.283 185.733 65.7031 185.246 66.8691 184.423C70.6301 182.052 89.22 170.339 92.364 168.543C95.864 166.543 96.489 163.418 96.489 163.418L101.364 147.418C101.364 147.418 101.364 147.418 95.614 144.793C89.864 142.168 89.113 139.544 89.113 139.544Z" fill="#FFFFFF" fill-opacity="1.000000" fill-rule="nonzero"/>
		<path id="Vector" d="M139.321 141.462C139.321 141.462 138.163 137.628 134.742 136.295C131.321 134.962 116.655 128.545 116.655 128.545L132.071 102.961C132.071 102.961 135.905 93.9609 131.738 89.5439C127.571 85.127 117.988 79.7939 117.988 79.7939L110.467 79.7939L126.266 52.9932C129.62 47.3071 127.709 39.9121 122.024 36.561L72.6331 7.44678C66.947 4.09521 59.554 6.00488 56.2021 11.6909L9.14404 91.519C5.79297 97.2041 7.70215 104.599 13.3879 107.951L62.7781 137.064C68.4641 140.416 75.8591 138.505 79.21 132.822L102.144 93.9189L110.24 93.9189L95.49 120.128C95.49 120.128 90.356 129.342 95.156 134.378C99.365 138.794 107.823 141.294 107.823 141.294L125.073 147.795L130.174 179.086L130.183 179.085C130.732 182.498 133.682 185.108 137.25 185.108C141.208 185.108 144.416 181.899 144.416 177.941C144.416 177.752 144.402 177.566 144.388 177.381L144.416 177.377L139.321 141.462ZM17.958 100.198C16.5571 99.3721 16.071 97.4902 16.897 96.0898L63.9561 16.2612C64.782 14.8599 66.6631 14.373 68.063 15.1992L79.584 21.9912L29.48 106.989L17.958 100.198ZM71.4561 128.252C70.6301 129.652 68.749 130.139 67.3491 129.313L37.2332 111.559L87.3401 26.563L117.453 44.3159C118.855 45.1421 119.34 47.0229 118.515 48.4229L100.022 79.7949L91.239 79.7949L71.323 94.2222C70.8811 94.4741 70.47 94.7749 70.093 95.1128L70.062 95.1348L70.064 95.1382C68.6191 96.4502 67.7061 98.3359 67.7061 100.442C67.7061 104.4 70.9141 107.609 74.873 107.609C76.4211 107.609 77.8511 107.113 79.022 106.278L79.0242 106.281L79.095 106.223C79.2771 106.09 79.4512 105.95 79.6191 105.8L89.2791 98.0161L71.4561 128.252Z" fill="#FFFFFF" fill-opacity="1.000000" fill-rule="nonzero"/>
		<path id="Vector" d="M49.219 5.94287L2.16089 85.772C-1.19019 91.457 0.718994 98.8521 6.40479 102.204L55.7949 131.317C61.481 134.669 68.876 132.758 72.2268 127.075L119.284 47.2461C122.638 41.5601 120.727 34.165 115.042 30.814L65.6499 1.7002C59.9648 -1.65186 52.5708 0.257812 49.219 5.94287ZM9.91382 90.3428L56.9729 10.5142C57.7988 9.11279 59.6799 8.62598 61.0798 9.45215L72.6008 16.2441L22.4958 101.242L10.9739 94.4512C9.57397 93.625 9.08789 91.7432 9.91382 90.3428ZM111.531 42.6758L64.4719 122.505C63.646 123.905 61.7649 124.392 60.365 123.566L30.249 105.812L80.355 20.8159L110.468 38.5688C111.871 39.394 112.355 41.2749 111.531 42.6758Z" fill="#F0C42E" fill-opacity="1.000000" fill-rule="nonzero"/>
		<path id="Vector" d="M150 63.083C150 71.229 143.396 77.833 135.25 77.833C127.104 77.833 120.5 71.229 120.5 63.083C120.5 54.937 127.104 48.333 135.25 48.333C143.396 48.333 150 54.937 150 63.083Z" fill="#3A3A3A" fill-opacity="1.000000" fill-rule="evenodd"/>
		<path id="Vector" d="M81.875 133.75L74.801 151.625L51.9761 166.542C49.8081 167.774 48.342 170.101 48.342 172.772C48.342 176.73 51.55 179.939 55.509 179.939C57.0439 179.939 58.4641 179.452 59.6301 178.629C63.3911 176.258 81.981 164.545 85.125 162.749C88.625 160.749 89.25 157.624 89.25 157.624L94.125 141.624C94.125 141.624 94.125 141.624 88.375 138.999C82.625 136.374 81.875 133.75 81.875 133.75Z" fill="#3A3A3A" fill-opacity="1.000000" fill-rule="nonzero"/>
		<path id="Vector" d="M132.083 135.668C132.083 135.668 130.925 131.834 127.504 130.501C124.083 129.168 109.417 122.751 109.417 122.751L124.833 97.167C124.833 97.167 128.667 88.167 124.5 83.75C120.333 79.333 110.75 74 110.75 74L84 74L64.085 88.4268C63.6431 88.6802 63.2319 88.98 62.855 89.3179L62.824 89.3398L62.8259 89.3428C61.3811 90.6538 60.468 92.541 60.468 94.646C60.468 98.604 63.676 101.813 67.635 101.813C69.1831 101.813 70.613 101.317 71.7839 100.482L71.7861 100.485L71.8569 100.427C72.0391 100.294 72.2141 100.154 72.3821 100.004L87.125 88.123L103 88.123L88.25 114.332C88.25 114.332 83.116 123.546 87.916 128.582C92.125 132.998 100.583 135.498 100.583 135.498L117.833 141.999L122.934 173.29L122.943 173.289C123.492 176.702 126.442 179.312 130.01 179.312C133.968 179.312 137.176 176.103 137.176 172.145C137.176 171.956 137.162 171.77 137.148 171.585L137.176 171.581L132.083 135.668Z" fill="#3A3A3A" fill-opacity="1.000000" fill-rule="nonzero"/>
	</g>
</svg>
