<svg width="136.000000" height="164.000000" viewBox="0 0 136 164" fill="none" xmlns="http://www.w3.org/2000/svg" xmlns:xlink="http://www.w3.org/1999/xlink">
	<desc>
			Created with Pixso.
	</desc>
	<defs>
		<clipPath id="clip2867_233">
			<rect width="136.000000" height="164.000000" fill="white" fill-opacity="0"/>
		</clipPath>
	</defs>
	<rect width="136.000000" height="164.000000" fill="#FFFFFF" fill-opacity="0"/>
	<g clip-path="url(#clip2867_233)">
		<path d="M93.1331 38.7671C101.254 38.7671 108.078 33.2251 110.033 25.718L115.5 26.532C115.607 26.5481 115.715 26.5562 115.82 26.5562C116.871 26.5562 117.791 25.7861 117.951 24.7161C118.127 23.5381 117.312 22.4399 116.135 22.2651L110.594 21.4399C110.596 21.394 110.598 21.3491 110.598 21.302C110.598 21.1201 110.592 20.9399 110.584 20.76C110.584 20.76 110.133 14.2419 109.51 11.5229C108.889 8.80396 106.975 8.22705 106.975 8.22705C97.2048 6.01514 87.2029 5.78906 84.5999 5.78906C81.9968 5.78906 81.4419 7.12109 81.4419 7.12109L78.292 12.1169L78.282 12.114C78.2061 12.2361 78.136 12.3591 78.063 12.4822L78.0359 12.5251C76.5339 15.105 75.6689 18.1011 75.6689 21.302C75.668 30.948 83.488 38.7671 93.1331 38.7671Z" fill="#FFFFFF" fill-opacity="1.000000" fill-rule="nonzero"/>
		<path d="M131.535 78.0759L131.535 78.074L104.793 75.906L95.5469 54.7939C95.5469 54.7939 95.0859 52.02 89.5391 46.3179C83.99 40.616 72.74 42.928 72.74 42.928C72.74 42.928 48.854 47.397 40.9949 49.2458C33.135 51.0959 32.8269 59.1089 32.8269 59.1089L32.1948 63.6279L17.0168 60.687C16.8259 60.6499 16.636 60.6321 16.449 60.6321C15.042 60.6321 13.7778 61.6321 13.501 63.061L6.08984 101.303C5.77588 102.923 6.84399 104.505 8.46484 104.819L59.6609 114.742C59.7759 114.764 59.8909 114.766 60.0068 114.775L60.009 114.775C59.281 114.879 58.718 114.74 58.718 114.74L49.3179 112.891L46.2358 129.996L22.676 150.359C20.9749 151.72 19.884 153.812 19.884 156.16C19.884 160.264 23.21 163.59 27.313 163.59C29.3479 163.59 31.1909 162.772 32.533 161.445C32.533 161.445 60.2581 139.395 62.1079 137.854C63.958 136.314 64.8809 134.001 64.8809 134.001C64.8809 134.001 69.4219 120.053 70.6599 117.127C71.5081 115.123 75.592 116.048 75.592 116.048L98.4771 124.679L106.092 153.741C106.174 154.371 106.334 154.975 106.565 155.545L106.567 155.545C107.665 158.273 110.337 160.199 113.456 160.199C117.56 160.199 120.886 156.872 120.886 152.769C120.886 152.17 120.814 151.59 120.679 151.033C119.837 146.068 116.075 123.987 115.118 119.207C114.04 113.813 110.497 112.273 110.497 112.273C110.497 112.273 89.229 100.715 87.843 99.9438C86.4561 99.1741 86.7649 97.1699 86.7649 97.1699L90.6948 82.8389L93.468 88.6951C93.468 88.6951 95.0869 91.969 97.552 92.0859L130.909 92.906C135.013 92.906 138.339 89.5801 138.339 85.4749C138.338 81.5859 135.346 78.396 131.535 78.0759ZM60.104 62.8069L58.3149 68.687L68.2129 70.606L47.999 66.689L48.5469 64.1929L60.104 62.8069ZM57.855 108.28L12.551 99.499L18.821 67.146L31.363 69.5769L29.7449 81.144L29.105 85.55C29.0999 85.5759 29.0969 85.606 29.093 85.6321L29.075 85.759L29.0769 85.759C29.0369 86.071 29.0139 86.3879 29.0139 86.71C29.0139 90.814 32.3411 94.1389 36.4438 94.1389C40.5469 94.1389 43.873 90.814 43.873 86.71C43.873 86.3921 43.8521 86.0801 43.812 85.7729L46.7129 72.55L64.126 75.9241L57.855 108.28Z" fill="#FFFFFF" fill-opacity="1.000000" fill-rule="nonzero"/>
		<path d="M25.05 17.0081L63.0771 17.0081C64.177 17.0081 65.0771 16.1121 65.0771 15.0181C65.0771 13.9241 64.177 13.0281 63.0771 13.0281L25.05 13.0281C23.95 13.0281 23.05 13.9241 23.05 15.0181C23.05 16.1121 23.95 17.0081 25.05 17.0081Z" fill="#FFFFFF" fill-opacity="1.000000" fill-rule="nonzero"/>
		<path d="M38.0798 23.0249C36.9797 23.0249 36.0798 23.9209 36.0798 25.0149C36.0798 26.1089 36.9797 27.0049 38.0798 27.0049L61.0388 27.0049C62.1389 27.0049 63.0388 26.1089 63.0388 25.0149C63.0388 23.9199 62.1389 23.0249 61.0388 23.0249L38.0798 23.0249Z" fill="#FFFFFF" fill-opacity="1.000000" fill-rule="nonzero"/>
		<path d="M87.0981 32.7319C95.219 32.7319 102.043 27.1899 103.998 19.6829L109.465 20.4968C109.572 20.5129 109.68 20.521 109.785 20.521C110.836 20.521 111.756 19.751 111.916 18.6809C112.092 17.5029 111.277 16.4048 110.1 16.23L104.559 15.4048C104.561 15.3589 104.563 15.314 104.563 15.2668C104.563 15.085 104.557 14.9048 104.549 14.7249C104.549 14.7249 104.098 8.20679 103.475 5.48779C102.854 2.7688 100.94 2.19189 100.94 2.19189C91.1702 -0.0200195 81.168 -0.246094 78.564 -0.246094C75.96 -0.246094 75.406 1.08594 75.406 1.08594L72.2561 6.08179L72.2461 6.07886C72.1702 6.19995 72.1001 6.32397 72.0271 6.44702L72 6.48999C70.498 9.06982 69.6331 12.0659 69.6331 15.2668C69.6331 24.9128 77.4531 32.7319 87.0981 32.7319Z" fill="#3A3A3A" fill-opacity="1.000000" fill-rule="nonzero"/>
		<path d="M125.5 72.041L125.5 72.0391L98.7578 69.8711L89.512 48.759C89.512 48.759 89.051 45.9851 83.5039 40.283C77.9548 34.5811 66.7048 36.8931 66.7048 36.8931C66.7048 36.8931 42.8188 41.3621 34.96 43.21C27.0999 45.0601 26.792 53.073 26.792 53.073L23.71 75.1091L23.0698 79.5151C23.0649 79.541 23.062 79.571 23.0579 79.5972L23.04 79.7241L23.042 79.7241C23.002 80.0361 22.979 80.353 22.979 80.675C22.979 84.7791 26.3059 88.104 30.4089 88.104C34.512 88.104 37.8379 84.7791 37.8379 80.675C37.8379 80.3572 37.8169 80.0452 37.7769 79.738L42.511 58.157L54.0679 56.771L52.2788 62.6511L62.177 64.5701C63.7969 64.8831 64.865 66.4661 64.552 68.0872L57.1399 106.33C56.863 107.76 55.5989 108.76 54.1919 108.76C54.1199 108.76 54.0459 108.744 53.9719 108.739C53.2439 108.843 52.6809 108.704 52.6809 108.704L43.281 106.855L40.199 123.96L16.6389 144.323C14.938 145.684 13.8469 147.776 13.8469 150.124C13.8469 154.228 17.1729 157.554 21.2759 157.554C23.311 157.554 25.1538 156.736 26.4958 155.409C26.4958 155.409 54.2209 133.359 56.0708 131.818C57.9209 130.278 58.844 127.965 58.844 127.965C58.844 127.965 63.385 114.017 64.623 111.091C65.4709 109.087 69.5549 110.012 69.5549 110.012L92.4399 118.643L100.055 147.705C100.137 148.335 100.297 148.939 100.528 149.509L100.53 149.509C101.628 152.237 104.3 154.163 107.419 154.163C111.523 154.163 114.849 150.836 114.849 146.733C114.849 146.134 114.777 145.554 114.642 144.997C113.8 140.032 110.038 117.951 109.081 113.171C108.003 107.777 104.46 106.237 104.46 106.237C104.46 106.237 83.1929 94.6821 81.8069 93.9102C80.4199 93.1401 80.729 91.136 80.729 91.136L84.6589 76.8052L87.4319 82.6611C87.4319 82.6611 89.051 85.9351 91.5159 86.052L124.873 86.8721C128.977 86.8721 132.303 83.5461 132.303 79.4412C132.303 75.551 129.311 72.3601 125.5 72.041Z" fill="#3A3A3A" fill-opacity="1.000000" fill-rule="nonzero"/>
		<path d="M53.9707 109.144L53.9729 109.144C54.0459 109.15 54.1199 109.165 54.1929 109.165C55.5999 109.165 56.8638 108.165 57.1409 106.735L64.5527 68.4919C64.8657 66.8711 63.7979 65.2891 62.1777 64.9751L41.9639 61.0581L40.6777 66.9199L58.0908 70.2939L51.8198 102.648L6.51587 93.8689L12.7859 61.5161L25.3279 63.947L26.1597 57.9971L10.9817 55.0549C10.7908 55.0181 10.6008 55 10.4138 55C9.00684 55 7.74268 56 7.46582 57.429L0.0546875 95.6731C-0.259277 97.293 0.808838 98.875 2.42969 99.189L53.6257 109.112C53.7397 109.134 53.8547 109.135 53.9707 109.144Z" fill="#F0C42E" fill-opacity="1.000000" fill-rule="nonzero"/>
		<path d="M59.042 8.98193C59.042 10.0769 58.1418 10.9719 57.042 10.9719L19.0149 10.9719C17.9148 10.9719 17.0149 10.0759 17.0149 8.98193C17.0149 7.88794 17.9148 6.99194 19.0149 6.99194L57.042 6.99194C58.1418 6.99292 59.042 7.88794 59.042 8.98193Z" fill="#F0C52E" fill-opacity="1.000000" fill-rule="nonzero"/>
		<path d="M57.0039 18.98C57.0039 20.074 56.104 20.97 55.0039 20.97L32.0439 20.97C30.9438 20.97 30.0439 20.074 30.0439 18.98C30.0439 17.885 30.9438 16.99 32.0439 16.99L55.0029 16.99C56.104 16.99 57.0039 17.886 57.0039 18.98Z" fill="#F0C52E" fill-opacity="1.000000" fill-rule="nonzero"/>
	</g>
</svg>
