<svg width="50.000000" height="50.000000" viewBox="0 0 50 50" fill="none" xmlns="http://www.w3.org/2000/svg" xmlns:xlink="http://www.w3.org/1999/xlink">
	<desc>
			Created with Pixso.
	</desc>
	<defs/>
	<path id="Ellipse 7" d="M25 50C38.8071 50 50 38.8071 50 25C50 11.1929 38.8071 0 25 0C11.1929 0 0 11.1929 0 25C0 38.8071 11.1929 50 25 50ZM33.8293 46.3159Q29.7634 48 25 48Q20.2366 48 16.1707 46.3159Q12.1047 44.6317 8.73657 41.2634Q5.36816 37.8951 3.68408 33.8293Q2 29.7634 2 25Q2 20.2365 3.68408 16.1707Q5.36816 12.1048 8.73657 8.73657Q12.1047 5.36829 16.1707 3.68414Q20.2366 2 25 2Q29.7634 2 33.8291 3.68408Q37.895 5.36823 41.2634 8.73657Q44.6316 12.1048 46.3159 16.1707Q48 20.2365 48 25Q48 29.7634 46.3159 33.8293Q44.6318 37.8951 41.2634 41.2634Q37.8953 44.6317 33.8293 46.3159Z" fill="#000000" fill-opacity="1.000000" fill-rule="evenodd"/>
	<path id="Vector" d="M33 24L17 24L17 26L33 26L33 24Z" fill="#000000" fill-opacity="1.000000" fill-rule="evenodd"/>
</svg>
