<svg width="60.000000" height="60.000000" viewBox="0 0 60 60" fill="none" xmlns="http://www.w3.org/2000/svg" xmlns:xlink="http://www.w3.org/1999/xlink">
	<desc>
			Created with Pixso.
	</desc>
	<defs/>
	<g opacity="0.000000">
		<circle id="подложка" cx="30.000000" cy="30.000000" r="30.000000" fill="#C4C4C4" fill-opacity="1.000000"/>
		<circle id="подложка" cx="30.000000" cy="30.000000" r="29.000000" stroke="#000000" stroke-opacity="0.600000" stroke-width="2.000000"/>
	</g>
	<circle id="Ellipse 22" cx="30.000000" cy="30.000000" r="30.000000" fill="#C4C4C4" fill-opacity="0"/>
	<circle id="Ellipse 22" cx="30.000000" cy="30.000000" r="29.000000" stroke="#000000" stroke-opacity="0.600000" stroke-width="2.000000"/>
	<path id="NEW" d="M13.5632 28.758L13.5632 34.442L11.2672 34.442L11.2672 24.502L13.0872 24.502L17.6932 30.354L17.6932 24.502L19.9892 24.502L19.9892 34.442L18.1132 34.442L13.5632 28.758ZM31.6763 32.426L31.6763 34.442L24.6903 34.442L24.6903 24.502L31.5503 24.502L31.5503 26.518L26.9863 26.518L26.9863 28.45L30.9063 28.45L30.9063 30.312L26.9863 30.312L26.9863 32.426L31.6763 32.426ZM39.1471 24.516L41.2611 24.516L42.2971 27.694L43.3331 24.516L45.4611 24.516L43.7671 29.136L44.7751 31.782L47.2671 24.502L49.7731 24.502L45.8951 34.442L43.9071 34.442L42.2971 30.55L40.7011 34.442L38.6991 34.442L34.8351 24.502L37.3271 24.502L39.8331 31.782L40.8131 29.136L39.1471 24.516Z" fill="#000000" fill-opacity="0.600000" fill-rule="evenodd"/>
</svg>
