<svg width="15.000000" height="14.056885" viewBox="0 0 15 14.0569" fill="none" xmlns="http://www.w3.org/2000/svg" xmlns:xlink="http://www.w3.org/1999/xlink">
	<desc>
			Created with Pixso.
	</desc>
	<defs/>
	<path id="Vector" d="M9.69995 0.155029C11.2 -0.344971 12.3 0.455078 12.8999 1.25513C13.3999 1.05518 14 0.855225 14.6001 0.655029C14.6001 1.45508 14.1001 2.05518 13.8 2.25513C14.5 2.45508 15 1.85522 15 1.85522C14.8999 2.75513 14.1001 3.55518 13.6001 3.75513C13.3999 10.0552 10.8 14.155 4.69995 14.0552C4.19995 14.0552 4.80005 14.0552 4.30005 14.0552C4 14.0552 0.600098 13.655 0 12.2551C2 12.4551 3.3999 11.8552 4.1001 11.155C3.30005 10.8552 1.69995 10.7551 1.5 8.35522C1.80005 8.55518 2 8.65503 2.6001 8.55518C1.5 7.75513 0.300049 7.05518 0.399902 5.05518C0.699951 5.35522 1.30005 5.55518 1.6001 5.45508C1 5.25513 -0.199951 2.35522 0.800049 0.855225C2.3999 2.55518 4.1001 4.25513 7.1001 4.35522C7.30005 2.25513 8.1001 0.855225 9.69995 0.155029Z" fill="#444444" fill-opacity="1.000000" fill-rule="nonzero"/>
</svg>
